<svg width="580" height="155" viewBox="0 0 580 155" fill="none" xmlns="http://www.w3.org/2000/svg">
<path d="M212.808 145.576C209.304 145.576 206.184 144.976 203.448 143.776C200.712 142.576 198.552 140.944 196.968 138.88C195.384 136.768 194.496 134.416 194.304 131.824H206.472C206.616 133.216 207.264 134.344 208.416 135.208C209.568 136.072 210.984 136.504 212.664 136.504C214.2 136.504 215.376 136.216 216.192 135.64C217.056 135.016 217.488 134.224 217.488 133.264C217.488 132.112 216.888 131.272 215.688 130.744C214.488 130.168 212.544 129.544 209.856 128.872C206.976 128.2 204.576 127.504 202.656 126.784C200.736 126.016 199.08 124.84 197.688 123.256C196.296 121.624 195.6 119.44 195.6 116.704C195.6 114.4 196.224 112.312 197.472 110.44C198.768 108.52 200.64 107.008 203.088 105.904C205.584 104.8 208.536 104.248 211.944 104.248C216.984 104.248 220.944 105.496 223.824 107.992C226.752 110.488 228.432 113.8 228.864 117.928H217.488C217.296 116.536 216.672 115.432 215.616 114.616C214.608 113.8 213.264 113.392 211.584 113.392C210.144 113.392 209.04 113.68 208.272 114.256C207.504 114.784 207.12 115.528 207.12 116.488C207.12 117.64 207.72 118.504 208.92 119.08C210.168 119.656 212.088 120.232 214.68 120.808C217.656 121.576 220.08 122.344 221.952 123.112C223.824 123.832 225.456 125.032 226.848 126.712C228.288 128.344 229.032 130.552 229.08 133.336C229.08 135.688 228.408 137.8 227.064 139.672C225.768 141.496 223.872 142.936 221.376 143.992C218.928 145.048 216.072 145.576 212.808 145.576ZM250.22 145.576C246.284 145.576 242.732 144.736 239.564 143.056C236.444 141.376 233.972 138.976 232.148 135.856C230.372 132.736 229.484 129.088 229.484 124.912C229.484 120.784 230.396 117.16 232.22 114.04C234.044 110.872 236.54 108.448 239.708 106.768C242.876 105.088 246.428 104.248 250.364 104.248C254.3 104.248 257.852 105.088 261.02 106.768C264.188 108.448 266.684 110.872 268.508 114.04C270.332 117.16 271.244 120.784 271.244 124.912C271.244 129.04 270.308 132.688 268.436 135.856C266.612 138.976 264.092 141.376 260.876 143.056C257.708 144.736 254.156 145.576 250.22 145.576ZM250.22 134.92C252.572 134.92 254.564 134.056 256.196 132.328C257.876 130.6 258.716 128.128 258.716 124.912C258.716 121.696 257.9 119.224 256.268 117.496C254.684 115.768 252.716 114.904 250.364 114.904C247.964 114.904 245.972 115.768 244.388 117.496C242.804 119.176 242.012 121.648 242.012 124.912C242.012 128.128 242.78 130.6 244.316 132.328C245.9 134.056 247.868 134.92 250.22 134.92ZM293.256 115.048H286.632V145H274.32V115.048H269.856V104.824H274.32V103.672C274.32 98.728 275.736 94.984 278.568 92.44C281.4 89.848 285.552 88.552 291.024 88.552C291.936 88.552 292.608 88.576 293.04 88.624V99.064C290.688 98.92 289.032 99.256 288.072 100.072C287.112 100.888 286.632 102.352 286.632 104.464V104.824H293.256V115.048ZM316.754 134.56V145H310.49C306.025 145 302.545 143.92 300.049 141.76C297.553 139.552 296.305 135.976 296.305 131.032V115.048H291.409V104.824H296.305V95.032H308.618V104.824H316.681V115.048H308.618V131.176C308.618 132.376 308.906 133.24 309.482 133.768C310.057 134.296 311.017 134.56 312.361 134.56H316.754ZM376.604 104.824L365.731 145H352.123L345.788 118.936L339.235 145H325.699L314.755 104.824H327.067L332.755 133.552L339.524 104.824H352.556L359.395 133.408L365.012 104.824H376.604ZM374.171 124.84C374.171 120.712 374.939 117.088 376.475 113.968C378.059 110.848 380.195 108.448 382.883 106.768C385.571 105.088 388.571 104.248 391.883 104.248C394.715 104.248 397.187 104.824 399.299 105.976C401.459 107.128 403.115 108.64 404.267 110.512V104.824H416.579V145H404.267V139.312C403.067 141.184 401.387 142.696 399.227 143.848C397.115 145 394.643 145.576 391.811 145.576C388.547 145.576 385.571 144.736 382.883 143.056C380.195 141.328 378.059 138.904 376.475 135.784C374.939 132.616 374.171 128.968 374.171 124.84ZM404.267 124.912C404.267 121.84 403.403 119.416 401.675 117.64C399.995 115.864 397.931 114.976 395.483 114.976C393.035 114.976 390.947 115.864 389.219 117.64C387.539 119.368 386.699 121.768 386.699 124.84C386.699 127.912 387.539 130.36 389.219 132.184C390.947 133.96 393.035 134.848 395.483 134.848C397.931 134.848 399.995 133.96 401.675 132.184C403.403 130.408 404.267 127.984 404.267 124.912ZM433.118 111.52C434.558 109.312 436.358 107.584 438.518 106.336C440.678 105.04 443.078 104.392 445.718 104.392V117.424H442.334C439.262 117.424 436.958 118.096 435.422 119.44C433.886 120.736 433.118 123.04 433.118 126.352V145H420.806V104.824H433.118V111.52ZM484.795 124.264C484.795 125.416 484.723 126.616 484.579 127.864H456.715C456.907 130.36 457.699 132.28 459.091 133.624C460.531 134.92 462.283 135.568 464.347 135.568C467.419 135.568 469.555 134.272 470.755 131.68H483.859C483.187 134.32 481.963 136.696 480.187 138.808C478.459 140.92 476.275 142.576 473.635 143.776C470.995 144.976 468.043 145.576 464.779 145.576C460.843 145.576 457.339 144.736 454.267 143.056C451.195 141.376 448.795 138.976 447.067 135.856C445.339 132.736 444.475 129.088 444.475 124.912C444.475 120.736 445.315 117.088 446.995 113.968C448.723 110.848 451.123 108.448 454.195 106.768C457.267 105.088 460.795 104.248 464.779 104.248C468.667 104.248 472.123 105.064 475.147 106.696C478.171 108.328 480.523 110.656 482.203 113.68C483.931 116.704 484.795 120.232 484.795 124.264ZM472.195 121.024C472.195 118.912 471.475 117.232 470.035 115.984C468.595 114.736 466.795 114.112 464.635 114.112C462.571 114.112 460.819 114.712 459.379 115.912C457.987 117.112 457.123 118.816 456.787 121.024H472.195Z" fill="white"/>
<path fill-rule="evenodd" clip-rule="evenodd" d="M82.7449 0.993493L82.7446 0.993164L0.0522461 83.602L17.7541 101.322L82.7267 36.4148L147.634 101.388L165.354 83.6858L100.446 18.713L82.7449 0.993493ZM100.989 112.58L83.2871 94.8599L47.2809 130.83L64.9827 148.55L83.2687 130.282L100.995 148.026L118.715 130.325L100.988 112.58L100.989 112.58ZM83.3108 47.6326L83.311 47.6328L142.329 106.71L124.609 124.412L83.293 83.0544L41.3692 124.936L23.6674 107.216L83.3108 47.6326Z" fill="url(#paint0_linear)"/>
<path d="M332.688 24.568V38.392H354.096V50.872H332.688V66.04H356.976V79H316.272V67.672H294.096L288.336 79H270.576L305.04 11.608H356.976V24.568H332.688ZM316.272 55.192V23.8L300.432 55.192H316.272Z" fill="white"/>
<path d="M385.784 79.672C380.856 79.672 376.44 78.872 372.536 77.272C368.632 75.672 365.496 73.304 363.128 70.168C360.824 67.032 359.608 63.256 359.48 58.84H376.952C377.208 61.336 378.072 63.256 379.544 64.6C381.016 65.88 382.936 66.52 385.304 66.52C387.736 66.52 389.656 65.976 391.064 64.888C392.472 63.736 393.176 62.168 393.176 60.184C393.176 58.52 392.6 57.144 391.448 56.056C390.36 54.968 388.984 54.072 387.32 53.368C385.72 52.664 383.416 51.864 380.408 50.968C376.056 49.624 372.504 48.28 369.752 46.936C367 45.592 364.632 43.608 362.648 40.984C360.664 38.36 359.672 34.936 359.672 30.712C359.672 24.44 361.944 19.544 366.488 16.024C371.032 12.44 376.952 10.648 384.248 10.648C391.672 10.648 397.656 12.44 402.2 16.024C406.744 19.544 409.176 24.472 409.496 30.808H391.736C391.608 28.632 390.808 26.936 389.336 25.72C387.864 24.44 385.976 23.8 383.672 23.8C381.688 23.8 380.088 24.344 378.872 25.432C377.656 26.456 377.048 27.96 377.048 29.944C377.048 32.12 378.072 33.816 380.12 35.032C382.168 36.248 385.368 37.56 389.72 38.968C394.072 40.44 397.592 41.848 400.28 43.192C403.032 44.536 405.4 46.488 407.384 49.048C409.368 51.608 410.36 54.904 410.36 58.936C410.36 62.776 409.368 66.264 407.384 69.4C405.464 72.536 402.648 75.032 398.936 76.888C395.224 78.744 390.84 79.672 385.784 79.672ZM462.702 11.608V24.76H444.846V79H428.43V24.76H410.574V11.608H462.702ZM480.829 11.608V51.928C480.829 55.96 481.821 59.064 483.805 61.24C485.789 63.416 488.701 64.504 492.541 64.504C496.381 64.504 499.325 63.416 501.373 61.24C503.421 59.064 504.445 55.96 504.445 51.928V11.608H520.861V51.832C520.861 57.848 519.581 62.936 517.021 67.096C514.461 71.256 511.005 74.392 506.653 76.504C502.365 78.616 497.565 79.672 492.253 79.672C486.941 79.672 482.173 78.648 477.949 76.6C473.789 74.488 470.493 71.352 468.061 67.192C465.629 62.968 464.413 57.848 464.413 51.832V11.608H480.829ZM550.532 79.672C545.604 79.672 541.188 78.872 537.284 77.272C533.38 75.672 530.244 73.304 527.876 70.168C525.572 67.032 524.356 63.256 524.228 58.84H541.7C541.956 61.336 542.82 63.256 544.292 64.6C545.764 65.88 547.684 66.52 550.052 66.52C552.484 66.52 554.404 65.976 555.812 64.888C557.22 63.736 557.924 62.168 557.924 60.184C557.924 58.52 557.348 57.144 556.196 56.056C555.108 54.968 553.732 54.072 552.068 53.368C550.468 52.664 548.164 51.864 545.156 50.968C540.804 49.624 537.252 48.28 534.5 46.936C531.748 45.592 529.38 43.608 527.396 40.984C525.412 38.36 524.42 34.936 524.42 30.712C524.42 24.44 526.692 19.544 531.236 16.024C535.78 12.44 541.7 10.648 548.996 10.648C556.42 10.648 562.404 12.44 566.948 16.024C571.492 19.544 573.924 24.472 574.244 30.808H556.484C556.356 28.632 555.556 26.936 554.084 25.72C552.612 24.44 550.724 23.8 548.42 23.8C546.436 23.8 544.836 24.344 543.62 25.432C542.404 26.456 541.796 27.96 541.796 29.944C541.796 32.12 542.82 33.816 544.868 35.032C546.916 36.248 550.116 37.56 554.468 38.968C558.82 40.44 562.34 41.848 565.028 43.192C567.78 44.536 570.148 46.488 572.132 49.048C574.116 51.608 575.108 54.904 575.108 58.936C575.108 62.776 574.116 66.264 572.132 69.4C570.212 72.536 567.396 75.032 563.684 76.888C559.972 78.744 555.588 79.672 550.532 79.672Z" fill="#00C6E1"/>
<path d="M214.368 24.76V38.392H236.352V51.064H214.368V65.848H239.232V79H197.952V11.608H239.232V24.76H214.368ZM287.522 11.608V24.76H260.066V38.968H280.61V51.736H260.066V79H243.65V11.608H287.522Z" fill="#00C6E1"/>
<defs>
<linearGradient id="paint0_linear" x1="82.703" y1="58.8193" x2="82.703" y2="148.55" gradientUnits="userSpaceOnUse">
<stop stop-color="#00C6E1"/>
<stop offset="1" stop-color="#006198"/>
</linearGradient>
</defs>
</svg>
